# xmcd
#
# Track frame offsets: 
#        187
#        18752
#        44092
#        64192
#        99139
#        118197
#        144527
#        163202
#        185772
#        200699
#
# Disc length: 3195 seconds
#
# Revision: 2
# Processed by: cddbd v1.5.2PL0 Copyright (c) Steve Scherf et al.
# Submitted via: ExactAudioCopy v0.99pb4
#
DISCID=920c790a
DTITLE=Terry Evans - Puttin' It Down-XRCD
DYEAR=1995
DGENRE=Blues
TTITLE0=Money in Your Pocket
TTITLE1=Too Many Ups and Downs
TTITLE2=Walking in the Same Tracks
TTITLE3=Down in Mississippi
TTITLE4=In this Day and Time
TTITLE5=Rooftop Tomcat
TTITLE6=A Lover like You
TTITLE7=One Sided Love Affair
TTITLE8=Nasty Doll
TTITLE9=Blues No More
EXTD=
EXTT0=
EXTT1=
EXTT2=
EXTT3=
EXTT4=
EXTT5=
EXTT6=
EXTT7=
EXTT8=
EXTT9=
PLAYORDER=
